<?xml version="1.0" encoding="UTF-8"?>
<svg version="1.1" xmlns="http://www.w3.org/2000/svg" width="128" height="128">
<path d="M0 0 C6.87457143 3.95901658 12.00952492 9.94598105 17 16 C18.28831496 17.46129513 19.57993004 18.91968812 20.875 20.375 C23.59401947 23.43542102 24.9024363 25.00485026 25.3125 29.1875 C24.67011103 37.02464545 20.18800696 41.09583599 14.51171875 46.0078125 C12.7543661 47.90064523 12.7543661 47.90064523 13.02734375 50.390625 C18.05439725 63.87685687 33.31510377 77.89315545 46 84 C48.69244068 83.8869961 49.66927152 83.2937239 51.67578125 81.51171875 C52.21589844 80.90972656 52.75601563 80.30773437 53.3125 79.6875 C57.58702004 75.25804 61.27117097 72.38299355 67.5625 71.5 C75.52519396 72.65821003 80.83625184 79.53386073 86.25 85 C87.47203125 86.21042969 87.47203125 86.21042969 88.71875 87.4453125 C89.49734375 88.22648437 90.2759375 89.00765625 91.078125 89.8125 C91.78356445 90.52019531 92.48900391 91.22789063 93.21582031 91.95703125 C96.7157242 95.96458403 97.58330451 99.4130186 97.4296875 104.64453125 C96.6241677 109.06024434 93.99145761 111.78936629 91 115 C90.21496094 115.86367187 89.42992188 116.72734375 88.62109375 117.6171875 C81.72861575 124.87796585 77.04226557 128.07326838 66.875 128.4375 C40.52490698 127.79103059 15.83271395 108.62756063 -1.82421875 90.421875 C-17.55190188 72.91529773 -32.0330267 50.68362024 -31.32421875 26.4375 C-30.3455918 16.06169618 -22.45111363 9.60906925 -15 3 C-10.0516989 -0.46829564 -5.92103727 -1.33395462 0 0 Z M-15 14 C-16.11955078 15.04800781 -16.11955078 15.04800781 -17.26171875 16.1171875 C-21.57115909 20.46531222 -24.18696221 23.91150135 -24.29296875 30.15625 C-21.8784203 53.593467 -7.14765151 73.75830599 9 90 C9.47163574 90.47566406 9.94327148 90.95132813 10.42919922 91.44140625 C25.13890257 106.06642794 47.5522407 121.47603928 68.90234375 121.43359375 C74.7196499 120.23113382 78.71354568 116.76208614 82.75 112.625 C83.23082031 112.15578125 83.71164063 111.6865625 84.20703125 111.203125 C87.00599147 108.38077514 89.22208948 105.9522873 90 102 C87.1809525 96.54478625 82.9978046 92.48172267 78.75 88.125 C78.01136719 87.32835938 77.27273437 86.53171875 76.51171875 85.7109375 C72.18852883 81.16611421 72.18852883 81.16611421 66.3046875 79.6484375 C62.41954835 81.23739512 60.06906623 83.39085962 57.375 86.5 C52.80897371 91.67917839 52.80897371 91.67917839 49.48828125 92.99609375 C38.80406244 93.01286646 27.44146425 80.5205466 20.3125 73.625 C13.84700512 67.01339224 5.93397283 58.39109327 4 49 C5.36345461 43.35780955 9.61274143 40.41875873 13.78515625 36.6953125 C16.56040928 33.31802045 16.8773426 31.3427114 17 27 C15.4028747 24.24310962 15.4028747 24.24310962 12.86328125 21.94140625 C11.97576172 21.06162109 11.08824219 20.18183594 10.17382812 19.27539062 C9.22958984 18.38013672 8.28535156 17.48488281 7.3125 16.5625 C5.92514648 15.17901367 5.92514648 15.17901367 4.50976562 13.76757812 C-3.88827795 5.58750828 -6.88546945 6.07553953 -15 14 Z " fill="#000000" transform="translate(31,0)"/>
</svg>
