<svg width="20" height="23" viewBox="0 0 20 23" fill="none" xmlns="http://www.w3.org/2000/svg">
<path fill-rule="evenodd" clip-rule="evenodd" d="M0.560357 22.1874C0.328423 21.901 0.213791 21.5015 0.241678 21.0768C0.269566 20.6522 0.437688 20.2371 0.709061 19.9229L14.6111 3.82877L7.72872 4.20831C7.54813 4.22582 7.37095 4.19995 7.20775 4.13222C7.04455 4.0645 6.89868 3.95631 6.77884 3.81412C6.65899 3.67193 6.56763 3.49864 6.5102 3.3046C6.45277 3.11055 6.43045 2.89973 6.44457 2.6847C6.45869 2.46967 6.50896 2.25484 6.59239 2.05303C6.67581 1.85122 6.79068 1.66656 6.93014 1.51007C7.0696 1.35358 7.23079 1.22846 7.40411 1.14217C7.57741 1.05589 7.75929 1.01022 7.93889 1.00787L18.0601 0.449734C18.4157 0.430389 18.7456 0.580263 18.9773 0.866438C19.209 1.15261 19.3237 1.55169 19.296 1.976L18.503 14.0531C18.4952 14.2677 18.4512 14.4835 18.3734 14.6879C18.2957 14.8922 18.1859 15.0808 18.0506 15.2424C17.9153 15.404 17.7572 15.5353 17.5858 15.6285C17.4144 15.7217 17.2332 15.7748 17.053 15.7848C16.8728 15.7947 16.6973 15.7612 16.537 15.6863C16.3766 15.6114 16.2347 15.4967 16.1197 15.3489C16.0047 15.2011 15.919 15.0233 15.8676 14.826C15.8163 14.6288 15.8004 14.4163 15.8208 14.201L16.3601 5.98858L2.45808 22.0827C2.18671 22.3969 1.83431 22.5844 1.47842 22.604C1.12253 22.6237 0.792291 22.4738 0.560357 22.1874Z" fill="#D9D9D9"/>
</svg>
