<svg width="1387" height="299" viewBox="0 0 1387 299" fill="none" xmlns="http://www.w3.org/2000/svg">
<mask id="path-1-outside-1_1139_7924" maskUnits="userSpaceOnUse" x="0" y="0" width="1387" height="299" fill="black">
<rect fill="white" width="1387" height="299"/>
<path d="M107.64 85.6763C126.688 85.6763 144.114 90.3369 159.92 99.6582C175.726 108.979 188.289 121.475 197.61 137.146C206.932 152.681 211.795 170.108 212.2 189.426V295.203H171.673V272.913C162.757 279.802 152.828 285.206 141.885 289.124C131.078 292.906 119.663 294.797 107.64 294.797C88.4567 294.797 70.8949 290.137 54.9541 280.815C39.1484 271.359 26.5174 258.728 17.061 242.922C7.73975 227.117 3.0791 209.555 3.0791 190.237C3.0791 171.054 7.73975 153.56 17.061 137.754C26.5174 121.948 39.1484 109.317 54.9541 99.8608C70.8949 90.4045 88.4567 85.6763 107.64 85.6763ZM107.64 254.27C125.337 254.27 140.399 248.056 152.828 235.627C165.391 223.064 171.673 207.934 171.673 190.237C171.673 172.675 165.391 157.612 152.828 145.049C140.399 132.485 125.337 126.204 107.64 126.204C89.9427 126.204 74.8125 132.485 62.249 145.049C49.8206 157.612 43.6064 172.675 43.6064 190.237C43.6064 207.934 49.8206 223.064 62.249 235.627C74.8125 248.056 89.9427 254.27 107.64 254.27ZM264.886 190.237C264.886 207.934 271.1 223.064 283.528 235.627C296.092 248.056 311.222 254.27 328.919 254.27V294.797C309.601 294.797 292.039 290.137 276.233 280.815C260.428 271.359 247.797 258.728 238.34 242.922C229.019 226.982 224.358 209.42 224.358 190.237H264.886ZM264.886 3.81104V190.237H224.358V3.81104H264.886ZM381.604 190.237C381.604 207.934 387.819 223.064 400.247 235.627C412.811 248.056 427.941 254.27 445.638 254.27V294.797C426.32 294.797 408.758 290.137 392.952 280.815C377.146 271.359 364.515 258.728 355.059 242.922C345.738 226.982 341.077 209.42 341.077 190.237H381.604ZM381.604 3.81104V190.237H341.077V3.81104H381.604ZM457.796 295.203V86.6895H498.323V295.203H457.796ZM457.796 43.1226V4.62158H498.323V43.1226H457.796ZM615.042 86.6895C634.36 86.6895 651.922 91.4176 667.728 100.874C683.533 110.33 696.097 122.961 705.418 138.767C714.874 154.573 719.603 172.067 719.603 191.25V294.797H679.075V191.25C679.075 173.688 672.793 158.625 660.23 146.062C647.802 133.499 632.739 127.217 615.042 127.217C597.48 127.217 582.417 133.499 569.854 146.062C557.291 158.625 551.009 173.688 551.009 191.25V294.797H510.481V191.25C510.481 172.067 515.21 154.573 524.666 138.767C534.122 122.961 546.753 110.33 562.559 100.874C578.365 91.4176 595.859 86.6895 615.042 86.6895ZM836.321 85.6763C855.639 85.6763 873.201 90.4045 889.007 99.8608C904.812 109.182 917.376 121.813 926.697 137.754C936.154 153.56 940.882 171.054 940.882 190.237C940.882 209.42 936.154 226.982 926.697 242.922C917.376 258.728 904.812 271.359 889.007 280.815C873.201 290.137 855.639 294.797 836.321 294.797C817.138 294.797 799.644 290.137 783.838 280.815C768.033 271.359 755.402 258.728 745.945 242.922C736.489 226.982 731.761 209.42 731.761 190.237C731.761 171.054 736.489 153.56 745.945 137.754C755.402 121.813 768.033 109.182 783.838 99.8608C799.644 90.4045 817.138 85.6763 836.321 85.6763ZM836.321 254.27C854.018 254.27 869.081 248.056 881.509 235.627C894.073 223.064 900.354 207.934 900.354 190.237C900.354 172.54 894.073 157.477 881.509 145.049C869.081 132.485 854.018 126.204 836.321 126.204C818.759 126.204 803.697 132.485 791.133 145.049C778.57 157.477 772.288 172.54 772.288 190.237C772.288 207.934 778.57 223.064 791.133 235.627C803.697 248.056 818.759 254.27 836.321 254.27ZM1057.6 86.6895C1076.92 86.6895 1094.48 91.4176 1110.29 100.874C1126.09 110.33 1138.66 122.961 1147.98 138.767C1157.43 154.573 1162.16 172.067 1162.16 191.25V294.797H1121.63V191.25C1121.63 173.688 1115.35 158.625 1102.79 146.062C1090.36 133.499 1075.3 127.217 1057.6 127.217C1040.04 127.217 1024.98 133.499 1012.41 146.062C999.849 158.625 993.567 173.688 993.567 191.25V294.797H953.04V191.25C953.04 172.067 957.768 154.573 967.225 138.767C976.681 122.961 989.312 110.33 1005.12 100.874C1020.92 91.4176 1038.42 86.6895 1057.6 86.6895ZM1278.88 85.6763C1298.06 85.6763 1315.56 90.4045 1331.36 99.8608C1347.3 109.182 1359.87 121.678 1369.05 137.349C1378.37 153.019 1383.17 170.581 1383.44 190.034V209.487H1380.2V209.69H1277.26V169.163H1339.47C1334.88 156.464 1327.11 146.13 1316.17 138.159C1305.36 130.189 1292.93 126.204 1278.88 126.204C1261.32 126.204 1246.26 132.485 1233.69 145.049C1221.13 157.477 1214.85 172.54 1214.85 190.237C1214.85 202.53 1218.09 213.472 1224.57 223.064C1231.19 232.655 1239.37 240.221 1249.09 245.759C1258.95 251.163 1269.09 254 1279.49 254.27L1278.47 294.797C1252.27 293.852 1228.76 284.125 1207.96 265.618C1185.53 244.138 1174.32 219.011 1174.32 190.237C1174.32 171.054 1179.05 153.56 1188.5 137.754C1197.96 121.813 1210.59 109.182 1226.4 99.8608C1242.2 90.4045 1259.7 85.6763 1278.88 85.6763Z"/>
</mask>
<path d="M197.61 137.146L195.032 138.68L195.038 138.689L197.61 137.146ZM212.2 189.426H215.2V189.395L215.2 189.363L212.2 189.426ZM212.2 295.203V298.203H215.2V295.203H212.2ZM171.673 295.203H168.673V298.203H171.673V295.203ZM171.673 272.913H174.673V266.803L169.839 270.539L171.673 272.913ZM141.885 289.124L142.876 291.955L142.886 291.952L142.896 291.948L141.885 289.124ZM54.9541 280.815L53.4139 283.39L53.4268 283.398L53.4398 283.405L54.9541 280.815ZM17.061 242.922L14.4769 244.446L14.4818 244.454L14.4866 244.463L17.061 242.922ZM17.061 137.754L14.4866 136.214L14.4818 136.222L14.4769 136.23L17.061 137.754ZM54.9541 99.8608L53.4235 97.2807L53.4139 97.2864L54.9541 99.8608ZM152.828 145.049L150.695 147.159L150.701 147.164L150.706 147.17L152.828 145.049ZM62.249 145.049L60.1277 142.928L60.122 142.933L60.1163 142.939L62.249 145.049ZM62.249 235.627L60.1163 237.737L60.1277 237.749L60.1392 237.76L62.249 235.627ZM107.64 85.6763V88.6763C126.173 88.6763 143.07 93.2039 158.396 102.242L159.92 99.6582L161.444 97.0741C145.158 87.4699 127.202 82.6763 107.64 82.6763V85.6763ZM159.92 99.6582L158.396 102.242C173.77 111.309 185.97 123.445 195.032 138.68L197.61 137.146L200.189 135.612C190.608 119.506 177.681 106.65 161.444 97.0741L159.92 99.6582ZM197.61 137.146L195.038 138.689C204.072 153.747 208.806 170.657 209.201 189.489L212.2 189.426L215.2 189.363C214.784 169.559 209.791 151.616 200.183 135.603L197.61 137.146ZM212.2 189.426H209.2V295.203H212.2H215.2V189.426H212.2ZM212.2 295.203V292.203H171.673V295.203V298.203H212.2V295.203ZM171.673 295.203H174.673V272.913H171.673H168.673V295.203H171.673ZM171.673 272.913L169.839 270.539C161.179 277.23 151.53 282.484 140.874 286.299L141.885 289.124L142.896 291.948C154.126 287.928 164.334 282.375 173.507 275.286L171.673 272.913ZM141.885 289.124L140.894 286.292C130.421 289.958 119.342 291.797 107.64 291.797V294.797V297.797C119.983 297.797 131.735 295.855 142.876 291.955L141.885 289.124ZM107.64 294.797V291.797C88.9674 291.797 71.9315 287.268 56.4684 278.226L54.9541 280.815L53.4398 283.405C69.8582 293.006 87.9461 297.797 107.64 297.797V294.797ZM54.9541 280.815L56.4944 278.241C41.1134 269.039 28.8377 256.763 19.6355 241.382L17.061 242.922L14.4866 244.463C24.1971 260.693 37.1834 273.679 53.4139 283.39L54.9541 280.815ZM17.061 242.922L19.6451 241.398C10.6107 226.079 6.0791 209.048 6.0791 190.237H3.0791H0.0791016C0.0791016 210.061 4.86877 228.154 14.4769 244.446L17.061 242.922ZM3.0791 190.237H6.0791C6.0791 171.564 10.6088 154.6 19.6451 139.278L17.061 137.754L14.4769 136.23C4.87074 152.519 0.0791016 170.543 0.0791016 190.237H3.0791ZM17.061 137.754L19.6355 139.294C28.8377 123.913 41.1134 111.638 56.4944 102.435L54.9541 99.8608L53.4139 97.2864C37.1834 106.997 24.1971 119.983 14.4866 136.214L17.061 137.754ZM54.9541 99.8608L56.4847 102.441C71.9455 93.2693 88.9756 88.6763 107.64 88.6763V85.6763V82.6763C87.9378 82.6763 69.8442 87.5396 53.4235 97.2807L54.9541 99.8608ZM107.64 254.27V257.27C126.126 257.27 141.954 250.744 154.949 237.749L152.828 235.627L150.706 233.506C138.845 245.368 124.547 251.27 107.64 251.27V254.27ZM152.828 235.627L154.949 237.749C168.073 224.625 174.673 208.733 174.673 190.237H171.673H168.673C168.673 207.135 162.71 221.503 150.706 233.506L152.828 235.627ZM171.673 190.237H174.673C174.673 171.869 168.068 156.046 154.949 142.928L152.828 145.049L150.706 147.17C162.715 159.178 168.673 173.481 168.673 190.237H171.673ZM152.828 145.049L154.96 142.939C141.968 129.805 126.137 123.204 107.64 123.204V126.204V129.204C124.537 129.204 138.831 135.166 150.695 147.159L152.828 145.049ZM107.64 126.204V123.204C89.1435 123.204 73.2513 129.804 60.1277 142.928L62.249 145.049L64.3703 147.17C76.3737 135.167 90.7419 129.204 107.64 129.204V126.204ZM62.249 145.049L60.1163 142.939C47.1362 156.06 40.6064 171.879 40.6064 190.237H43.6064H46.6064C46.6064 173.471 52.5051 159.164 64.3818 147.159L62.249 145.049ZM43.6064 190.237H40.6064C40.6064 208.723 47.1314 224.611 60.1163 237.737L62.249 235.627L64.3818 233.518C52.5099 221.517 46.6064 207.145 46.6064 190.237H43.6064ZM62.249 235.627L60.1392 237.76C73.2652 250.745 89.1539 257.27 107.64 257.27V254.27V251.27C90.7315 251.27 76.3598 245.367 64.3588 233.495L62.249 235.627ZM264.886 190.237H267.886V187.237H264.886V190.237ZM283.528 235.627L281.396 237.737L281.407 237.749L281.418 237.76L283.528 235.627ZM328.919 254.27H331.919V251.27H328.919V254.27ZM328.919 294.797V297.797H331.919V294.797H328.919ZM276.233 280.815L274.693 283.39L274.701 283.395L274.709 283.4L276.233 280.815ZM238.34 242.922L235.751 244.437L235.758 244.45L235.766 244.463L238.34 242.922ZM224.358 190.237V187.237H221.358V190.237H224.358ZM264.886 3.81104H267.886V0.811035H264.886V3.81104ZM264.886 190.237V193.237H267.886V190.237H264.886ZM224.358 190.237H221.358V193.237H224.358V190.237ZM224.358 3.81104V0.811035H221.358V3.81104H224.358ZM264.886 190.237H261.886C261.886 208.723 268.411 224.611 281.396 237.737L283.528 235.627L285.661 233.518C273.789 221.517 267.886 207.145 267.886 190.237H264.886ZM283.528 235.627L281.418 237.76C294.544 250.745 310.433 257.27 328.919 257.27V254.27V251.27C312.011 251.27 297.639 245.367 285.638 233.495L283.528 235.627ZM328.919 254.27H325.919V294.797H328.919H331.919V254.27H328.919ZM328.919 294.797V291.797C310.107 291.797 293.077 287.266 277.757 278.231L276.233 280.815L274.709 283.4C291.002 293.008 309.094 297.797 328.919 297.797V294.797ZM276.233 280.815L277.774 278.241C262.393 269.039 250.117 256.763 240.915 241.382L238.34 242.922L235.766 244.463C245.476 260.693 258.463 273.679 274.693 283.39L276.233 280.815ZM238.34 242.922L240.93 241.408C231.888 225.945 227.358 208.909 227.358 190.237H224.358H221.358C221.358 209.93 226.15 228.018 235.751 244.437L238.34 242.922ZM224.358 190.237V193.237H264.886V190.237V187.237H224.358V190.237ZM264.886 3.81104H261.886V190.237H264.886H267.886V3.81104H264.886ZM264.886 190.237V187.237H224.358V190.237V193.237H264.886V190.237ZM224.358 190.237H227.358V3.81104H224.358H221.358V190.237H224.358ZM224.358 3.81104V6.81104H264.886V3.81104V0.811035H224.358V3.81104ZM381.604 190.237H384.604V187.237H381.604V190.237ZM400.247 235.627L398.114 237.737L398.126 237.749L398.137 237.76L400.247 235.627ZM445.638 254.27H448.638V251.27H445.638V254.27ZM445.638 294.797V297.797H448.638V294.797H445.638ZM392.952 280.815L391.412 283.39L391.42 283.395L391.428 283.4L392.952 280.815ZM355.059 242.922L352.469 244.437L352.477 244.45L352.485 244.463L355.059 242.922ZM341.077 190.237V187.237H338.077V190.237H341.077ZM381.604 3.81104H384.604V0.811035H381.604V3.81104ZM381.604 190.237V193.237H384.604V190.237H381.604ZM341.077 190.237H338.077V193.237H341.077V190.237ZM341.077 3.81104V0.811035H338.077V3.81104H341.077ZM381.604 190.237H378.604C378.604 208.723 385.129 224.611 398.114 237.737L400.247 235.627L402.38 233.518C390.508 221.517 384.604 207.145 384.604 190.237H381.604ZM400.247 235.627L398.137 237.76C411.263 250.745 427.152 257.27 445.638 257.27V254.27V251.27C428.73 251.27 414.358 245.367 402.357 233.495L400.247 235.627ZM445.638 254.27H442.638V294.797H445.638H448.638V254.27H445.638ZM445.638 294.797V291.797C426.826 291.797 409.795 287.266 394.476 278.231L392.952 280.815L391.428 283.4C407.72 293.008 425.813 297.797 445.638 297.797V294.797ZM392.952 280.815L394.492 278.241C379.111 269.039 366.836 256.763 357.634 241.382L355.059 242.922L352.485 244.463C362.195 260.693 375.181 273.679 391.412 283.39L392.952 280.815ZM355.059 242.922L357.649 241.408C348.607 225.945 344.077 208.909 344.077 190.237H341.077H338.077C338.077 209.93 342.869 228.018 352.469 244.437L355.059 242.922ZM341.077 190.237V193.237H381.604V190.237V187.237H341.077V190.237ZM381.604 3.81104H378.604V190.237H381.604H384.604V3.81104H381.604ZM381.604 190.237V187.237H341.077V190.237V193.237H381.604V190.237ZM341.077 190.237H344.077V3.81104H341.077H338.077V190.237H341.077ZM341.077 3.81104V6.81104H381.604V3.81104V0.811035H341.077V3.81104ZM457.796 295.203H454.796V298.203H457.796V295.203ZM457.796 86.6895V83.6895H454.796V86.6895H457.796ZM498.323 86.6895H501.323V83.6895H498.323V86.6895ZM498.323 295.203V298.203H501.323V295.203H498.323ZM457.796 43.1226H454.796V46.1226H457.796V43.1226ZM457.796 4.62158V1.62158H454.796V4.62158H457.796ZM498.323 4.62158H501.323V1.62158H498.323V4.62158ZM498.323 43.1226V46.1226H501.323V43.1226H498.323ZM457.796 295.203H460.796V86.6895H457.796H454.796V295.203H457.796ZM457.796 86.6895V89.6895H498.323V86.6895V83.6895H457.796V86.6895ZM498.323 86.6895H495.323V295.203H498.323H501.323V86.6895H498.323ZM498.323 295.203V292.203H457.796V295.203V298.203H498.323V295.203ZM457.796 43.1226H460.796V4.62158H457.796H454.796V43.1226H457.796ZM457.796 4.62158V7.62158H498.323V4.62158V1.62158H457.796V4.62158ZM498.323 4.62158H495.323V43.1226H498.323H501.323V4.62158H498.323ZM498.323 43.1226V40.1226H457.796V43.1226V46.1226H498.323V43.1226ZM705.418 138.767L702.834 140.291L702.839 140.299L702.844 140.307L705.418 138.767ZM719.603 294.797V297.797H722.603V294.797H719.603ZM679.075 294.797H676.075V297.797H679.075V294.797ZM660.23 146.062L658.097 148.172L658.103 148.178L658.109 148.183L660.23 146.062ZM551.009 294.797V297.797H554.009V294.797H551.009ZM510.481 294.797H507.481V297.797H510.481V294.797ZM615.042 86.6895V89.6895C633.845 89.6895 650.87 94.2844 666.187 103.448L667.728 100.874L669.268 98.2996C652.973 88.5509 634.875 83.6895 615.042 83.6895V86.6895ZM667.728 100.874L666.187 103.448C681.564 112.648 693.768 124.919 702.834 140.291L705.418 138.767L708.002 137.243C698.425 121.004 685.502 108.012 669.268 98.2996L667.728 100.874ZM705.418 138.767L702.844 140.307C712.01 155.628 716.603 172.586 716.603 191.25H719.603H722.603C722.603 171.548 717.739 153.518 707.992 137.227L705.418 138.767ZM719.603 191.25H716.603V294.797H719.603H722.603V191.25H719.603ZM719.603 294.797V291.797H679.075V294.797V297.797H719.603V294.797ZM679.075 294.797H682.075V191.25H679.075H676.075V294.797H679.075ZM679.075 191.25H682.075C682.075 172.882 675.47 157.059 662.351 143.941L660.23 146.062L658.109 148.183C670.117 160.192 676.075 174.494 676.075 191.25H679.075ZM660.23 146.062L662.363 143.952C649.37 130.818 633.539 124.217 615.042 124.217V127.217V130.217C631.939 130.217 646.233 136.179 658.097 148.172L660.23 146.062ZM615.042 127.217V124.217C596.674 124.217 580.851 130.822 567.733 143.941L569.854 146.062L571.975 148.183C583.984 136.175 598.286 130.217 615.042 130.217V127.217ZM569.854 146.062L567.733 143.941C554.614 157.059 548.009 172.882 548.009 191.25H551.009H554.009C554.009 174.494 559.967 160.192 571.975 148.183L569.854 146.062ZM551.009 191.25H548.009V294.797H551.009H554.009V191.25H551.009ZM551.009 294.797V291.797H510.481V294.797V297.797H551.009V294.797ZM510.481 294.797H513.481V191.25H510.481H507.481V294.797H510.481ZM510.481 191.25H513.481C513.481 172.586 518.074 155.628 527.24 140.307L524.666 138.767L522.092 137.227C512.345 153.518 507.481 171.548 507.481 191.25H510.481ZM524.666 138.767L527.24 140.307C536.443 124.926 548.718 112.651 564.099 103.448L562.559 100.874L561.019 98.2996C544.788 108.01 531.802 120.996 522.092 137.227L524.666 138.767ZM562.559 100.874L564.099 103.448C579.42 94.2824 596.378 89.6895 615.042 89.6895V86.6895V83.6895C595.34 83.6895 577.31 88.5529 561.019 98.2996L562.559 100.874ZM889.007 99.8608L887.467 102.435L887.475 102.44L887.483 102.445L889.007 99.8608ZM926.697 137.754L924.108 139.268L924.115 139.281L924.123 139.294L926.697 137.754ZM926.697 242.922L924.117 241.392L924.113 241.398L926.697 242.922ZM889.007 280.815L890.531 283.4L890.539 283.395L890.547 283.39L889.007 280.815ZM783.838 280.815L782.298 283.39L782.306 283.395L782.314 283.4L783.838 280.815ZM745.945 242.922L743.365 244.453L743.371 244.463L745.945 242.922ZM745.945 137.754L748.52 139.294L748.525 139.285L745.945 137.754ZM783.838 99.8608L785.362 102.445L785.37 102.44L785.379 102.435L783.838 99.8608ZM881.509 145.049L879.377 147.159L879.388 147.17L879.399 147.182L881.509 145.049ZM791.133 145.049L793.243 147.182L793.249 147.176L793.255 147.17L791.133 145.049ZM791.133 235.627L789.012 237.749L789.018 237.754L789.023 237.76L791.133 235.627ZM836.321 85.6763V88.6763C855.125 88.6763 872.15 93.2712 887.467 102.435L889.007 99.8608L890.547 97.2864C874.253 87.5377 856.154 82.6763 836.321 82.6763V85.6763ZM889.007 99.8608L887.483 102.445C902.845 111.505 915.043 123.766 924.108 139.268L926.697 137.754L929.287 136.24C919.709 119.86 906.78 106.86 890.531 97.2767L889.007 99.8608ZM926.697 137.754L924.123 139.294C933.289 154.615 937.882 171.573 937.882 190.237H940.882H943.882C943.882 170.535 939.018 152.505 929.272 136.214L926.697 137.754ZM940.882 190.237H937.882C937.882 208.901 933.289 225.931 924.117 241.392L926.697 242.922L929.277 244.453C939.018 228.032 943.882 209.939 943.882 190.237H940.882ZM926.697 242.922L924.113 241.398C915.048 256.77 902.844 269.041 887.467 278.241L889.007 280.815L890.547 283.39C906.781 273.677 919.704 260.686 929.281 244.446L926.697 242.922ZM889.007 280.815L887.483 278.231C872.164 287.266 855.133 291.797 836.321 291.797V294.797V297.797C856.146 297.797 874.239 293.008 890.531 283.4L889.007 280.815ZM836.321 294.797V291.797C817.649 291.797 800.685 287.268 785.362 278.231L783.838 280.815L782.314 283.4C798.603 293.006 816.628 297.797 836.321 297.797V294.797ZM783.838 280.815L785.379 278.241C769.998 269.039 757.722 256.763 748.52 241.382L745.945 242.922L743.371 244.463C753.081 260.693 766.068 273.679 782.298 283.39L783.838 280.815ZM745.945 242.922L748.525 241.392C739.354 225.931 734.761 208.901 734.761 190.237H731.761H728.761C728.761 209.939 733.624 228.032 743.365 244.453L745.945 242.922ZM731.761 190.237H734.761C734.761 171.573 739.354 154.615 748.52 139.294L745.945 137.754L743.371 136.214C733.624 152.505 728.761 170.535 728.761 190.237H731.761ZM745.945 137.754L748.525 139.285C757.727 123.774 769.996 111.507 785.362 102.445L783.838 99.8608L782.314 97.2767C766.069 106.857 753.077 119.853 743.365 136.223L745.945 137.754ZM783.838 99.8608L785.379 102.435C800.699 93.2692 817.657 88.6763 836.321 88.6763V85.6763V82.6763C816.619 82.6763 798.589 87.5397 782.298 97.2864L783.838 99.8608ZM836.321 254.27V257.27C854.808 257.27 870.635 250.744 883.631 237.749L881.509 235.627L879.388 233.506C867.526 245.368 853.229 251.27 836.321 251.27V254.27ZM881.509 235.627L883.631 237.749C896.754 224.625 903.354 208.733 903.354 190.237H900.354H897.354C897.354 207.135 891.391 221.503 879.388 233.506L881.509 235.627ZM900.354 190.237H903.354C903.354 171.74 896.753 155.909 883.619 142.916L881.509 145.049L879.399 147.182C891.392 159.046 897.354 173.34 897.354 190.237H900.354ZM881.509 145.049L883.642 142.939C870.649 129.805 854.818 123.204 836.321 123.204V126.204V129.204C853.218 129.204 867.513 135.166 879.377 147.159L881.509 145.049ZM836.321 126.204V123.204C817.953 123.204 802.131 129.809 789.012 142.928L791.133 145.049L793.255 147.17C805.263 135.162 819.565 129.204 836.321 129.204V126.204ZM791.133 145.049L789.023 142.916C775.889 155.909 769.288 171.74 769.288 190.237H772.288H775.288C775.288 173.34 781.25 159.046 793.243 147.182L791.133 145.049ZM772.288 190.237H769.288C769.288 208.733 775.888 224.625 789.012 237.749L791.133 235.627L793.255 233.506C781.251 221.503 775.288 207.135 775.288 190.237H772.288ZM791.133 235.627L789.023 237.76C802.145 250.74 817.964 257.27 836.321 257.27V254.27V251.27C819.555 251.27 805.249 245.371 793.243 233.495L791.133 235.627ZM1147.98 138.767L1145.39 140.291L1145.4 140.299L1145.4 140.307L1147.98 138.767ZM1162.16 294.797V297.797H1165.16V294.797H1162.16ZM1121.63 294.797H1118.63V297.797H1121.63V294.797ZM1102.79 146.062L1100.66 148.172L1100.66 148.178L1100.67 148.183L1102.79 146.062ZM993.567 294.797V297.797H996.567V294.797H993.567ZM953.04 294.797H950.04V297.797H953.04V294.797ZM1057.6 86.6895V89.6895C1076.4 89.6895 1093.43 94.2844 1108.75 103.448L1110.29 100.874L1111.83 98.2996C1095.53 88.5509 1077.43 83.6895 1057.6 83.6895V86.6895ZM1110.29 100.874L1108.75 103.448C1124.12 112.648 1136.33 124.919 1145.39 140.291L1147.98 138.767L1150.56 137.243C1140.98 121.004 1128.06 108.012 1111.83 98.2996L1110.29 100.874ZM1147.98 138.767L1145.4 140.307C1154.57 155.628 1159.16 172.586 1159.16 191.25H1162.16H1165.16C1165.16 171.548 1160.3 153.518 1150.55 137.227L1147.98 138.767ZM1162.16 191.25H1159.16V294.797H1162.16H1165.16V191.25H1162.16ZM1162.16 294.797V291.797H1121.63V294.797V297.797H1162.16V294.797ZM1121.63 294.797H1124.63V191.25H1121.63H1118.63V294.797H1121.63ZM1121.63 191.25H1124.63C1124.63 172.882 1118.03 157.059 1104.91 143.941L1102.79 146.062L1100.67 148.183C1112.68 160.192 1118.63 174.494 1118.63 191.25H1121.63ZM1102.79 146.062L1104.92 143.952C1091.93 130.818 1076.1 124.217 1057.6 124.217V127.217V130.217C1074.5 130.217 1088.79 136.179 1100.66 148.172L1102.79 146.062ZM1057.6 127.217V124.217C1039.23 124.217 1023.41 130.822 1010.29 143.941L1012.41 146.062L1014.53 148.183C1026.54 136.175 1040.84 130.217 1057.6 130.217V127.217ZM1012.41 146.062L1010.29 143.941C997.173 157.059 990.567 172.882 990.567 191.25H993.567H996.567C996.567 174.494 1002.53 160.192 1014.53 148.183L1012.41 146.062ZM993.567 191.25H990.567V294.797H993.567H996.567V191.25H993.567ZM993.567 294.797V291.797H953.04V294.797V297.797H993.567V294.797ZM953.04 294.797H956.04V191.25H953.04H950.04V294.797H953.04ZM953.04 191.25H956.04C956.04 172.586 960.633 155.628 969.799 140.307L967.225 138.767L964.65 137.227C954.903 153.518 950.04 171.548 950.04 191.25H953.04ZM967.225 138.767L969.799 140.307C979.001 124.926 991.277 112.651 1006.66 103.448L1005.12 100.874L1003.58 98.2996C987.347 108.01 974.361 120.996 964.65 137.227L967.225 138.767ZM1005.12 100.874L1006.66 103.448C1021.98 94.2824 1038.94 89.6895 1057.6 89.6895V86.6895V83.6895C1037.9 83.6895 1019.87 88.5529 1003.58 98.2996L1005.12 100.874ZM1331.36 99.8608L1329.82 102.435L1329.84 102.443L1329.85 102.451L1331.36 99.8608ZM1369.05 137.349L1366.47 138.866L1366.47 138.874L1366.47 138.882L1369.05 137.349ZM1383.44 190.034H1386.44V190.013L1386.44 189.993L1383.44 190.034ZM1383.44 209.487V212.487H1386.44V209.487H1383.44ZM1380.2 209.487V206.487H1377.2V209.487H1380.2ZM1380.2 209.69V212.69H1383.2V209.69H1380.2ZM1277.26 209.69H1274.26V212.69H1277.26V209.69ZM1277.26 169.163V166.163H1274.26V169.163H1277.26ZM1339.47 169.163V172.163H1343.74L1342.29 168.142L1339.47 169.163ZM1316.17 138.159L1314.38 140.574L1314.39 140.579L1314.4 140.584L1316.17 138.159ZM1233.69 145.049L1235.8 147.182L1235.81 147.176L1235.81 147.17L1233.69 145.049ZM1224.57 223.064L1222.09 224.744L1222.1 224.756L1222.1 224.768L1224.57 223.064ZM1249.09 245.759L1247.61 248.366L1247.63 248.378L1247.65 248.39L1249.09 245.759ZM1279.49 254.27L1282.49 254.345L1282.56 251.349L1279.57 251.271L1279.49 254.27ZM1278.47 294.797L1278.37 297.795L1281.4 297.905L1281.47 294.872L1278.47 294.797ZM1207.96 265.618L1205.88 267.784L1205.92 267.822L1205.96 267.859L1207.96 265.618ZM1188.5 137.754L1191.08 139.294L1191.08 139.285L1188.5 137.754ZM1226.4 99.8608L1227.92 102.445L1227.93 102.44L1227.94 102.435L1226.4 99.8608ZM1278.88 85.6763V88.6763C1297.54 88.6763 1314.5 93.2692 1329.82 102.435L1331.36 99.8608L1332.9 97.2864C1316.61 87.5397 1298.58 82.6763 1278.88 82.6763V85.6763ZM1331.36 99.8608L1329.85 102.451C1345.35 111.517 1357.54 123.647 1366.47 138.866L1369.05 137.349L1371.64 135.831C1362.19 119.71 1349.25 106.847 1332.88 97.2711L1331.36 99.8608ZM1369.05 137.349L1366.47 138.882C1375.51 154.071 1380.18 171.112 1380.44 190.076L1383.44 190.034L1386.44 189.993C1386.16 170.05 1381.24 151.968 1371.63 135.815L1369.05 137.349ZM1383.44 190.034H1380.44V209.487H1383.44H1386.44V190.034H1383.44ZM1383.44 209.487V206.487H1380.2V209.487V212.487H1383.44V209.487ZM1380.2 209.487H1377.2V209.69H1380.2H1383.2V209.487H1380.2ZM1380.2 209.69V206.69H1277.26V209.69V212.69H1380.2V209.69ZM1277.26 209.69H1280.26V169.163H1277.26H1274.26V209.69H1277.26ZM1277.26 169.163V172.163H1339.47V169.163V166.163H1277.26V169.163ZM1339.47 169.163L1342.29 168.142C1337.49 154.879 1329.36 144.056 1317.93 135.734L1316.17 138.159L1314.4 140.584C1324.86 148.203 1332.26 158.049 1336.65 170.183L1339.47 169.163ZM1316.17 138.159L1317.95 135.745C1306.6 127.376 1293.54 123.204 1278.88 123.204V126.204V129.204C1292.32 129.204 1304.12 133.002 1314.38 140.574L1316.17 138.159ZM1278.88 126.204V123.204C1260.51 123.204 1244.69 129.809 1231.57 142.928L1233.69 145.049L1235.81 147.17C1247.82 135.162 1262.12 129.204 1278.88 129.204V126.204ZM1233.69 145.049L1231.58 142.916C1218.45 155.909 1211.85 171.74 1211.85 190.237H1214.85H1217.85C1217.85 173.34 1223.81 159.046 1235.8 147.182L1233.69 145.049ZM1214.85 190.237H1211.85C1211.85 203.09 1215.25 214.625 1222.09 224.744L1224.57 223.064L1227.06 221.384C1220.93 212.32 1217.85 201.97 1217.85 190.237H1214.85ZM1224.57 223.064L1222.1 224.768C1228.97 234.715 1237.47 242.595 1247.61 248.366L1249.09 245.759L1250.58 243.152C1241.26 237.846 1233.42 230.596 1227.04 221.36L1224.57 223.064ZM1249.09 245.759L1247.65 248.39C1257.9 254.004 1268.49 256.985 1279.41 257.269L1279.49 254.27L1279.57 251.271C1269.68 251.014 1260.01 248.321 1250.53 243.128L1249.09 245.759ZM1279.49 254.27L1276.49 254.195L1275.48 294.722L1278.47 294.797L1281.47 294.872L1282.49 254.345L1279.49 254.27ZM1278.47 294.797L1278.58 291.799C1253.12 290.88 1230.27 281.451 1209.95 263.376L1207.96 265.618L1205.96 267.859C1227.25 286.8 1251.42 296.823 1278.37 297.795L1278.47 294.797ZM1207.96 265.618L1210.03 263.451C1188.15 242.488 1177.32 218.124 1177.32 190.237H1174.32H1171.32C1171.32 219.899 1182.92 245.789 1205.88 267.784L1207.96 265.618ZM1174.32 190.237H1177.32C1177.32 171.573 1181.91 154.615 1191.08 139.294L1188.5 137.754L1185.93 136.214C1176.18 152.505 1171.32 170.535 1171.32 190.237H1174.32ZM1188.5 137.754L1191.08 139.285C1200.29 123.774 1212.55 111.507 1227.92 102.445L1226.4 99.8608L1224.87 97.2767C1208.63 106.857 1195.64 119.853 1185.92 136.223L1188.5 137.754ZM1226.4 99.8608L1227.94 102.435C1243.26 93.2692 1260.22 88.6763 1278.88 88.6763V85.6763V82.6763C1259.18 82.6763 1241.15 87.5397 1224.86 97.2864L1226.4 99.8608Z" fill="url(#paint0_linear_1139_7924)" fill-opacity="0.41" mask="url(#path-1-outside-1_1139_7924)"/>
<defs>
<linearGradient id="paint0_linear_1139_7924" x1="697.5" y1="-61" x2="697.5" y2="428" gradientUnits="userSpaceOnUse">
<stop stop-color="#078BD6" stop-opacity="0.866667"/>
<stop offset="0.711538" stop-color="#02EC97"/>
</linearGradient>
</defs>
</svg>
